<svg class="svg-icon" style="width: 1em;height: 1em;vertical-align: middle;fill: currentColor;overflow: hidden;" viewBox="0 0 1024 1024" version="1.1" xmlns="http://www.w3.org/2000/svg"><path d="M298.666667 362.666667a21.333333 21.333333 0 0 1 21.184 18.837333L320 384v106.666667h106.666667a21.333333 21.333333 0 0 1 2.496 42.517333L426.666667 533.333333h-106.666667v170.666667h106.666667a21.333333 21.333333 0 0 1 2.496 42.517333L426.666667 746.666667h-128a21.333333 21.333333 0 0 1-21.184-18.837334L277.333333 725.333333V384a21.333333 21.333333 0 0 1 21.333334-21.333333z" fill="#1989FA" /><path d="M448 234.666667m42.666667 0l256 0q42.666667 0 42.666666 42.666666l0 42.666667q0 42.666667-42.666666 42.666667l-256 0q-42.666667 0-42.666667-42.666667l0-42.666667q0-42.666667 42.666667-42.666666Z" fill="#88C1F9" /><path d="M234.666667 234.666667m42.666666 0l42.666667 0q42.666667 0 42.666667 42.666666l0 42.666667q0 42.666667-42.666667 42.666667l-42.666667 0q-42.666667 0-42.666666-42.666667l0-42.666667q0-42.666667 42.666666-42.666666Z" fill="#88C1F9" /><path d="M746.666667 213.333333H490.666667a64 64 0 0 0-64 64v42.666667a64 64 0 0 0 64 64h256a64 64 0 0 0 64-64v-42.666667a64 64 0 0 0-64-64z m-256 42.666667h256a21.333333 21.333333 0 0 1 21.333333 21.333333v42.666667a21.333333 21.333333 0 0 1-21.333333 21.333333H490.666667a21.333333 21.333333 0 0 1-21.333334-21.333333v-42.666667a21.333333 21.333333 0 0 1 21.333334-21.333333zM320 213.333333h-42.666667a64 64 0 0 0-64 64v42.666667a64 64 0 0 0 64 64h42.666667a64 64 0 0 0 64-64v-42.666667a64 64 0 0 0-64-64z m-42.666667 42.666667h42.666667a21.333333 21.333333 0 0 1 21.333333 21.333333v42.666667a21.333333 21.333333 0 0 1-21.333333 21.333333h-42.666667a21.333333 21.333333 0 0 1-21.333333-21.333333v-42.666667a21.333333 21.333333 0 0 1 21.333333-21.333333zM746.666667 426.666667H490.666667a64 64 0 0 0-64 64v42.666666a64 64 0 0 0 64 64h256a64 64 0 0 0 64-64v-42.666666a64 64 0 0 0-64-64z m-256 42.666666h256a21.333333 21.333333 0 0 1 21.333333 21.333334v42.666666a21.333333 21.333333 0 0 1-21.333333 21.333334H490.666667a21.333333 21.333333 0 0 1-21.333334-21.333334v-42.666666a21.333333 21.333333 0 0 1 21.333334-21.333334zM746.666667 640H490.666667a64 64 0 0 0-64 64v42.666667a64 64 0 0 0 64 64h256a64 64 0 0 0 64-64v-42.666667a64 64 0 0 0-64-64z m-256 42.666667h256a21.333333 21.333333 0 0 1 21.333333 21.333333v42.666667a21.333333 21.333333 0 0 1-21.333333 21.333333H490.666667a21.333333 21.333333 0 0 1-21.333334-21.333333v-42.666667a21.333333 21.333333 0 0 1 21.333334-21.333333z" fill="#1989FA" /></svg>